<?xml version="1.0" standalone="no"?>
<!DOCTYPE svg PUBLIC "-//W3C//DTD SVG 20010904//EN"
 "http://www.w3.org/TR/2001/REC-SVG-20010904/DTD/svg10.dtd">
<svg version="1.0" xmlns="http://www.w3.org/2000/svg"
 width="131.000000pt" height="107.000000pt" viewBox="0 0 131.000000 107.000000"
 preserveAspectRatio="xMidYMid meet">
<metadata>
Created by potrace 1.11, written by Peter Selinger 2001-2013
</metadata>
<g transform="translate(0.000000,107.000000) scale(0.100000,-0.100000)"
fill="#000000" stroke="none">
<path d="M9 1053 c-1 -10 -1 -21 -1 -24 1 -3 2 -56 3 -118 l1 -111 27 -7 c44
-10 114 -50 148 -83 35 -34 90 -136 79 -147 -3 -3 -11 8 -17 25 -14 42 -54 66
-110 66 -145 0 -191 -207 -64 -293 43 -29 126 -36 167 -15 116 60 152 236 80
396 -40 90 -193 259 -281 311 -30 17 -31 17 -32 0z m256 -534 c-7 -40 -33 -75
-66 -89 -36 -16 -83 9 -98 50 l-10 31 26 -21 c49 -38 115 -18 136 43 10 28 18
19 12 -14z"/>
<path d="M1121 663 c-72 -37 -97 -120 -61 -200 42 -94 191 -98 235 -7 22 46
20 50 -25 49 -29 0 -44 -6 -55 -22 -9 -13 -24 -23 -34 -23 -48 0 -70 91 -31
130 26 26 36 25 63 -3 29 -30 94 -31 89 -1 -5 30 -22 59 -43 73 -36 22 -101
24 -138 4z"/>
<path d="M450 536 c0 -98 3 -135 13 -138 6 -3 49 -4 94 -3 61 2 88 7 107 21
70 52 68 195 -3 237 -22 13 -53 17 -120 17 l-91 0 0 -134z m161 43 c17 -17 20
-29 15 -57 -6 -40 -19 -52 -58 -52 -28 0 -30 3 -30 55 0 71 1 75 27 75 14 0
35 -10 46 -21z"/>
<path d="M752 536 c-1 -95 3 -136 11 -139 7 -2 47 -3 89 -2 84 3 115 16 145
61 24 38 23 126 -4 162 -31 42 -60 52 -154 52 l-87 0 0 -134z m159 43 c17 -17
20 -29 16 -56 -7 -43 -7 -43 -50 -53 l-35 -8 -4 53 c-1 29 -2 60 0 69 5 23 48
20 73 -5z"/>
<path d="M36 277 c7 -71 20 -93 66 -111 50 -20 75 -20 118 2 30 15 36 25 51
85 9 37 15 67 12 67 -2 0 -17 -10 -34 -22 -46 -34 -118 -33 -174 3 l-45 29 6
-53z"/>
<path d="M61 106 c2 -26 9 -56 16 -66 28 -40 135 -33 147 9 11 36 18 91 12 91
-4 0 -19 -8 -33 -17 -32 -21 -78 -18 -116 9 l-28 20 2 -46z"/>
</g>
</svg>
