<svg xmlns="http://www.w3.org/2000/svg" id="Laag_1" viewBox="0 0 163 133" width="163" height="133"><style id="style3">.st0{fill:#004A99;stroke:#004A99;stroke-width:0.25;} .st1{fill:#004A99;}</style><path class="st0" d="M.9.6s8.4 3.3 21.6 17.3c13.7 14.5 21.2 26.6 21.8 42.5.5 14.5-4.2 22.5-9.9 27.1-8.4 6.7-20.7 6.6-29.2-2.3-8.9-9.4-4.7-22-2.2-25.5 7.6-10.9 19.2-7.5 21.9-5.6 2.7 1.9 5.9 3.8 6.1 9.4.2 5.5-3.1 10.1-6.3 10.9-3.2.8-10.9-5-12.8-7.6-1.9-2.7-1.8 7.6 2.3 11.5 3.1 2.9 4.9 3.2 7.7 3.2 3.1 0 7.5-2 10.1-8 1.6-3.8 1.9-8.6 1-13.3-.9-4.6-5.7-12-9.7-15.7-2.1-1.9-7.1-6.1-10.8-7.5-5.7-2.3-5.3-2.1-10.8-3.3L.9.6z" id="path5" fill="#004a99" stroke="#004a99" stroke-width=".25"/><path class="st0" d="M3.9 92.8l1.9 15.5s5.9 6.3 13 6.3c9.7 0 12.6-5.4 12.6-5.4L35 93.6s-5.4 7-15.3 6.9c-9 0-15.8-7.7-15.8-7.7z" id="path7" fill="#004a99" stroke="#004a99" stroke-width=".25"/><path class="st0" d="M7 114.7l1.3 12.4s3.7 5.3 9.1 5.4c6.6.1 9.6-3.9 9.6-3.9l2.9-12.8s-4.9 5.4-11.5 5.3c-6.1 0-11.4-6.4-11.4-6.4z" id="path9" fill="#004a99" stroke="#004a99" stroke-width=".25"/><circle class="st1" cx="20.9" cy="64.5" r="10.6" id="circle11" fill="#004a99"/><g id="g13" fill="#004a99"><path class="st1" d="M56.4 50.1h17.3c11.4 0 15.5 8.4 15.5 17.1 0 10.5-5.6 17.2-17.5 17.2H56.4V50.1zm10.5 25.5H71c6.6 0 7.5-5.3 7.5-8.5 0-2.2-.7-8.2-8.3-8.2h-3.4v16.7z" id="path15"/><path class="st1" d="M93.7 50.1H111c11.4 0 15.5 8.4 15.5 17.1 0 10.5-5.6 17.2-17.5 17.2H93.7V50.1zm10.6 25.5h4.1c6.6 0 7.5-5.3 7.5-8.5 0-2.2-.7-8.2-8.3-8.2h-3.4v16.7z" id="path17"/><path class="st1" d="M152.6 62.9c-.2-1.2-1.2-5-5.5-5-4.9 0-6.5 4.8-6.5 9.4 0 4.6 1.6 9.4 6.5 9.4 3.6 0 4.9-2.5 5.6-5.7h10.4c0 6.9-5.6 14.3-15.6 14.3-11.1 0-17.4-7.8-17.4-18 0-10.8 6.8-18 17.4-18 9.4 0 14.6 5 15.5 13.6h-10.4z" id="path19"/></g></svg>